<svg width="48" height="48" viewBox="0 0 48 48" fill="none" xmlns="http://www.w3.org/2000/svg">
<path fill-rule="evenodd" clip-rule="evenodd" d="M23.9999 23.9999L39.5999 8.3999C43.4999 12.3999 45.9999 17.8999 45.9999 23.9999C45.9999 36.1999 36.1999 45.9999 23.9999 45.9999C17.8999 45.9999 12.3999 43.5999 8.3999 39.5999L14 33.9998V34H24H34V24V14L24 24L23.9999 23.9999Z" fill="white"/>
<path fill-rule="evenodd" clip-rule="evenodd" d="M34 14L45.9 25.9C45 36.5 36.5 45 25.9 45.9L14 34H24H34V24V14Z" fill="#DDDDDD"/>
<path fill-rule="evenodd" clip-rule="evenodd" d="M2 24C2 11.8 11.8 2 24 2C30.1 2 35.6 4.5 39.6 8.4L34 14L24 24L14 14V24V34L8.4 39.6C4.5 35.6 2 30.1 2 24Z" fill="#AAAAAA"/>
</svg>
