<svg width="48" height="48" viewBox="0 0 48 48" fill="none" xmlns="http://www.w3.org/2000/svg">
<path fill-rule="evenodd" clip-rule="evenodd" d="M19 45.1577C19.982 45.415 20.9844 45.6031 22 45.719V38.9231H24.5C32.4823 38.9231 39 32.4739 39 24.4615C39 16.4491 32.4823 10 24.5 10C16.5177 10 10 16.4491 10 24.4615V40.2716C10.9361 41.1241 11.9406 41.887 13 42.5548V24.4615C13 18.1188 18.1617 13 24.5 13C30.8383 13 36 18.1188 36 24.4615C36 30.8043 30.8383 35.9231 24.5 35.9231H22.1818V29.9231H24.5C27.5503 29.9231 30 27.4649 30 24.4615C30 21.4581 27.5503 19 24.5 19C21.4497 19 19 21.4581 19 24.4615V45.1577ZM22 26.9231H24.5C25.9063 26.9231 27 25.7953 27 24.4615C27 23.1278 25.9063 22 24.5 22C23.0937 22 22 23.1278 22 24.4615V26.9231Z" fill="white"/>
</svg>
