<svg width="48" height="48" viewBox="0 0 48 48" fill="none" xmlns="http://www.w3.org/2000/svg">
<path fill-rule="evenodd" clip-rule="evenodd" d="M39.2896 39.0161L35.5122 35.2155C38.334 32.3195 40.0722 28.3627 40.0722 23.9997C40.0621 15.1277 32.8718 7.93743 23.9997 7.92725C15.1229 7.92725 7.92725 15.1229 7.92725 23.9997C7.92725 32.8766 15.1229 40.0722 23.9997 40.0722C26.7833 40.0722 29.4015 39.3647 31.6845 38.1196L35.5755 42.0346C36.8585 41.2114 38.0593 40.2477 39.1535 39.1535C39.1991 39.1079 39.2444 39.0621 39.2896 39.0161ZM23.9997 12.6547C30.2653 12.6547 35.3448 17.7341 35.3448 23.9997C35.3448 27.0518 34.1395 29.8225 32.179 31.8617L19.5729 19.178L12.829 25.9918C12.7145 25.345 12.6547 24.6794 12.6547 23.9997C12.6547 17.7341 17.7341 12.6547 23.9997 12.6547ZM19.5799 25.9408L28.1487 34.5622C26.8636 35.0673 25.4641 35.3448 23.9997 35.3448C20.247 35.3448 16.9197 33.5226 14.8545 30.7147L19.5799 25.9408Z" fill="white"/>
</svg>
