<?xml version="1.0" encoding="UTF-8" standalone="no"?>
<!DOCTYPE svg PUBLIC "-//W3C//DTD SVG 1.1//EN" "http://www.w3.org/Graphics/SVG/1.1/DTD/svg11.dtd">
<svg width="100%" height="100%" viewBox="0 0 890 890" version="1.1" xmlns="http://www.w3.org/2000/svg" xmlns:xlink="http://www.w3.org/1999/xlink" xml:space="preserve" xmlns:serif="http://www.serif.com/" style="fill-rule:evenodd;clip-rule:evenodd;stroke-linejoin:round;stroke-miterlimit:2;">
    <g transform="matrix(1.08343,0,0,1.08343,1316.69,-1224.1)">
        <g id="Layer-1" serif:id="Layer 1">
            <g id="g80302">
                <path id="path825" d="M-1130.21,1510.23C-1156.24,1510.23 -1183,1531.08 -1183,1567.58C-1183,1600.95 -1159.47,1624.53 -1130.21,1624.53C-1106.07,1624.53 -1095.3,1608.32 -1095.3,1608.32L-1095.3,1615.38C-1095.3,1618.72 -1092.14,1622.45 -1088.24,1622.45L-1070.78,1622.45L-1070.78,1512.72L-1095.3,1512.72L-1095.3,1526.64C-1095.3,1526.64 -1106.16,1510.23 -1130.21,1510.23ZM-1125.85,1532.66C-1104.42,1532.66 -1093.18,1551.51 -1093.18,1567.58C-1093.18,1585.48 -1106.53,1602.48 -1125.8,1602.48C-1141.91,1602.48 -1158.05,1589.43 -1158.05,1567.34C-1158.05,1547.4 -1144.16,1532.66 -1125.85,1532.66Z" style="fill-rule:nonzero;"/>
                <path id="path829" d="M-1036.7,1622.45C-1040.47,1622.45 -1043.77,1619.75 -1043.77,1615.38L-1043.77,1512.72L-1019.24,1512.72L-1019.24,1526.3C-1013.69,1517.95 -1002.83,1510.19 -986.167,1510.19C-958.932,1510.19 -944.43,1531.9 -944.43,1552.21L-944.43,1622.45L-961.47,1622.45C-965.939,1622.45 -968.952,1618.71 -968.952,1614.97L-968.952,1557.61C-968.952,1546.36 -975.846,1532.69 -991.792,1532.69C-1009,1532.69 -1019.24,1548.95 -1019.24,1564.26L-1019.24,1622.45L-1036.7,1622.45Z" style="fill-rule:nonzero;"/>
                <path id="path833" d="M-872.942,1510.23C-898.966,1510.23 -925.726,1531.08 -925.726,1567.58C-925.726,1600.95 -902.198,1624.53 -872.942,1624.53C-848.792,1624.53 -838.029,1608.32 -838.029,1608.32L-838.029,1615.38C-838.029,1618.72 -834.871,1622.45 -830.963,1622.45L-813.507,1622.45L-813.507,1457.86L-838.029,1457.86L-838.029,1526.64C-838.029,1526.64 -848.882,1510.23 -872.942,1510.23ZM-868.573,1532.66C-847.15,1532.66 -835.912,1551.51 -835.912,1567.58C-835.912,1585.48 -849.255,1602.48 -868.528,1602.48C-884.639,1602.48 -900.778,1589.43 -900.778,1567.34C-900.778,1547.4 -886.89,1532.66 -868.573,1532.66Z" style="fill-rule:nonzero;"/>
                <path id="path835" d="M-779.425,1622.45C-783.193,1622.45 -786.491,1619.75 -786.491,1615.38L-786.491,1512.72L-761.969,1512.72L-761.969,1531.01C-757.748,1520.76 -748.64,1511.48 -732.46,1511.48C-727.949,1511.48 -723.731,1512.31 -723.731,1512.31L-723.731,1537.66C-723.731,1537.66 -728.998,1535.58 -735.369,1535.58C-752.575,1535.58 -761.969,1551.84 -761.969,1567.15L-761.969,1622.45L-779.425,1622.45Z" style="fill-rule:nonzero;"/>
                <path id="path837" d="M-574.937,1622.45C-578.704,1622.45 -582.002,1619.75 -582.002,1615.38L-582.002,1512.72L-557.48,1512.72L-557.48,1622.45L-574.937,1622.45Z" style="fill-rule:nonzero;"/>
                <path id="path839" d="M-485.577,1510.23C-511.601,1510.23 -538.361,1531.08 -538.361,1567.58C-538.361,1600.95 -514.833,1624.53 -485.577,1624.53C-461.427,1624.53 -450.664,1608.32 -450.664,1608.32L-450.664,1615.38C-450.664,1618.72 -447.507,1622.45 -443.598,1622.45L-426.142,1622.45L-426.142,1457.86L-450.664,1457.86L-450.664,1526.64C-450.664,1526.64 -461.517,1510.23 -485.577,1510.23ZM-481.209,1532.66C-459.785,1532.66 -448.547,1551.51 -448.547,1567.58C-448.547,1585.48 -461.89,1602.48 -481.163,1602.48C-497.274,1602.48 -513.413,1589.43 -513.413,1567.34C-513.413,1547.4 -499.525,1532.66 -481.209,1532.66Z" style="fill-rule:nonzero;"/>
                <circle id="path841" cx="-569.934" cy="1472.84" r="16.219"/>
                <path id="path843" d="M-659.061,1510.19C-686.315,1510.19 -716.259,1530.54 -716.259,1567.39C-716.259,1600.97 -690.754,1624.53 -659.12,1624.53C-620.134,1624.53 -601.098,1593.19 -601.098,1567.6C-601.098,1536.2 -625.611,1510.19 -659.061,1510.19ZM-658.971,1533.09C-640.124,1533.09 -626.065,1548.28 -626.065,1567.46C-626.065,1586.97 -640.989,1602.02 -658.915,1602.02C-675.556,1602.02 -691.732,1588.48 -691.732,1567.79C-691.732,1546.75 -676.347,1533.09 -658.971,1533.09Z" style="fill-rule:nonzero;"/>
            </g>
        </g>
    </g>
</svg>
