<?xml version="1.0" encoding="UTF-8" standalone="no"?>
<!DOCTYPE svg PUBLIC "-//W3C//DTD SVG 1.1//EN" "http://www.w3.org/Graphics/SVG/1.1/DTD/svg11.dtd">
<svg width="100%" height="100%" viewBox="0 0 890 890" version="1.1" xmlns="http://www.w3.org/2000/svg" xmlns:xlink="http://www.w3.org/1999/xlink" xml:space="preserve" xmlns:serif="http://www.serif.com/" style="fill-rule:evenodd;clip-rule:evenodd;stroke-linejoin:round;stroke-miterlimit:2;">
    <g transform="matrix(0.8,0,0,0.8,-157.708,-571.087)">
        <g id="Layer-1" serif:id="Layer 1">
            <path id="path80319" d="M997.18,1158.77L1080.08,1015.16C1084.76,1007.11 1081.93,996.888 1073.98,992.21C1066.04,987.532 1055.71,990.252 1051.14,998.302L967.154,1143.75C903.078,1114.49 830.951,1098.17 753.385,1098.17C675.818,1098.17 603.691,1114.49 539.615,1143.75L455.63,998.302C450.952,990.252 440.726,987.532 432.676,992.21C424.625,996.888 421.906,1007.11 426.584,1015.16L509.481,1158.77C366.532,1236.22 269.71,1380.91 253.719,1550.3L1253.05,1550.3C1237.06,1380.91 1140.24,1236.22 997.18,1158.77ZM523.949,1409.96C500.777,1409.96 482.066,1391.14 482.066,1368.08C482.066,1344.9 500.886,1326.19 523.949,1326.19C547.121,1326.19 565.833,1345.01 565.833,1368.08C565.942,1391.14 547.121,1409.96 523.949,1409.96ZM982.711,1409.96C959.539,1409.96 940.827,1391.14 940.827,1368.08C940.827,1344.9 959.648,1326.19 982.711,1326.19C1005.88,1326.19 1024.59,1345.01 1024.59,1368.08C1024.7,1391.14 1005.88,1409.96 982.711,1409.96Z" style="fill-rule:nonzero;"/>
        </g>
    </g>
</svg>
