<svg width="144" height="144" viewBox="0 0 144 144" fill="none" xmlns="http://www.w3.org/2000/svg">
<path fill-rule="evenodd" clip-rule="evenodd" d="M26.5434 26.5434C14.4921 38.5946 7.7146 54.9571 7.7146 72.0003C7.7146 89.0435 14.4921 105.406 26.5434 117.457C38.5946 129.509 54.9571 136.286 72.0003 136.286C89.0435 136.286 105.406 129.509 117.457 117.457C129.509 105.406 136.286 89.0435 136.286 72.0003C136.286 54.9571 129.509 38.5946 117.457 26.5434C105.406 14.4921 89.0435 7.7146 72.0003 7.7146C54.9571 7.7146 38.5946 14.4921 26.5434 26.5434ZM68.3451 65.2387V62.9841H65.8564V85.546H68.4554V78.9017C70.1338 80.4723 72.2804 81.4111 74.7898 81.4111C79.9877 81.4111 84.1573 77.1868 84.1573 72.0254C84.1573 66.8276 79.9877 62.5847 74.7898 62.5847C72.2801 62.5847 70.0234 63.5971 68.3451 65.2387ZM68.7336 68.5409L68.7424 68.5262C69.9337 66.5036 72.1171 65.1513 74.5898 65.1515C78.3623 65.1515 81.4663 68.2555 81.4663 71.9933C81.4663 75.7656 78.3623 78.851 74.5898 78.851C72.0991 78.851 69.8972 77.4599 68.7056 75.421C68.5611 75.1682 68.4531 74.916 68.4531 74.4637V69.626C68.4531 69.0113 68.6249 68.7233 68.7336 68.5409ZM110.051 62.9841V65.2387C111.729 63.5971 113.986 62.5847 116.495 62.5847C121.694 62.5847 125.863 66.8276 125.863 72.0254C125.863 77.1868 121.694 81.4111 116.495 81.4111C113.986 81.4111 111.84 80.4723 110.161 78.9017V85.546H107.562V62.9841H110.051ZM110.448 68.5262L110.439 68.5418C110.33 68.7242 110.159 69.0123 110.159 69.626V74.4637C110.159 74.916 110.267 75.1682 110.411 75.421C111.603 77.4599 113.804 78.851 116.296 78.851C120.068 78.851 123.172 75.7656 123.172 71.9933C123.172 68.2555 120.068 65.1515 116.296 65.1515C113.823 65.1513 111.64 66.5036 110.448 68.5262ZM37.2582 81.4137C42.4219 81.4137 46.6279 77.1706 46.6279 71.9727C46.6279 66.8113 42.4216 62.5869 37.2582 62.5869C32.0577 62.5869 27.8357 66.8115 27.8357 71.9727C27.8357 77.1706 32.0603 81.4137 37.2582 81.4137ZM37.2582 65.1517C40.996 65.1517 44.0105 68.2374 44.0105 72.0094C44.0105 75.7447 40.996 78.849 37.2582 78.8513C33.4676 78.8513 30.5082 75.7473 30.5082 72.0094C30.5082 68.2374 33.4676 65.1517 37.2582 65.1517ZM105.013 71.9727C105.013 77.1706 100.807 81.4137 95.6434 81.4137C90.4453 81.4137 86.2207 77.1706 86.2207 71.9727C86.2207 66.8115 90.443 62.5869 95.6434 62.5869C100.807 62.5869 105.013 66.8113 105.013 71.9727ZM102.396 72.0094C102.396 68.2374 99.381 65.1517 95.6434 65.1517C91.8526 65.1517 88.8932 68.2374 88.8932 72.0094C88.8932 75.7473 91.8526 78.8513 95.6434 78.8513C99.381 78.849 102.396 75.7447 102.396 72.0094ZM62.8604 58.4539H60.2959V61.0896H62.8604V58.4539ZM60.2959 62.9656H62.8604V81.016H60.2959V62.9656ZM25.2937 58.4539H22.7292V81.0159H25.2937V58.4539ZM49.1741 58.4539H51.7386V81.0159H49.1741V58.4539ZM57.2994 58.4539H54.7346V81.0159H57.2994V58.4539Z" fill="black"/>
</svg>
