<svg width="144" height="144" viewBox="0 0 144 144" fill="none" xmlns="http://www.w3.org/2000/svg">
<path fill-rule="evenodd" clip-rule="evenodd" d="M71.9997 71.9997L118.8 25.1997C130.5 37.1997 138 53.6997 138 71.9997C138 108.6 108.6 138 71.9997 138C53.6997 138 37.1997 130.8 25.1997 118.8L42 101.999V102H72H102V72V42L72 72L71.9997 71.9997Z" fill="black"/>
<path fill-rule="evenodd" clip-rule="evenodd" d="M6 72C6 35.4 35.4 6 72 6C90.3 6 106.8 13.5 118.8 25.2L102 42L72 72L42 42V72V102L25.2 118.8C13.5 106.8 6 90.3 6 72Z" fill="black"/>
</svg>
