<svg width="144" height="144" viewBox="0 0 144 144" fill="none" xmlns="http://www.w3.org/2000/svg">
<path d="M12 72C12 56.094 18.327 40.821 29.574 29.574C40.821 18.327 56.094 12 72 12C87.906 12 103.179 18.327 114.426 29.574C125.673 40.821 132 56.094 132 72C132 87.906 125.673 103.179 114.426 114.426C103.179 125.673 87.906 132 72 132C56.094 132 40.821 125.673 29.574 114.426C18.327 103.179 12 87.906 12 72Z" fill="#404040"/>
<path d="M30 72C30 60.864 34.428 50.175 42.303 42.303C50.175 34.428 60.864 30 72 30C83.136 30 93.825 34.428 101.697 42.303C109.572 50.175 114 60.864 114 72C114 83.136 109.572 93.825 101.697 101.697C93.825 109.572 83.136 114 72 114C60.864 114 50.175 109.572 42.303 101.697C34.428 93.825 30 83.136 30 72Z" fill="#202020"/>
<path d="M48 72C48 65.637 50.529 59.529 55.029 55.029C59.529 50.529 65.637 48 72 48C78.363 48 84.471 50.529 88.971 55.029C93.471 59.529 96 65.637 96 72C96 78.363 93.471 84.471 88.971 88.971C84.471 93.471 78.363 96 72 96C65.637 96 59.529 93.471 55.029 88.971C50.529 84.471 48 78.363 48 72Z" fill="black"/>
</svg>
