<svg width="144" height="144" viewBox="0 0 144 144" fill="none" xmlns="http://www.w3.org/2000/svg">
<path fill-rule="evenodd" clip-rule="evenodd" d="M57 135.473C59.9458 136.245 62.9531 136.809 66 137.157V116.769H73.5C97.447 116.769 117 97.4218 117 73.3846C117 49.3474 97.447 30 73.5 30C49.553 30 30 49.3474 30 73.3846V120.815C32.8083 123.372 35.8218 125.661 39 127.664V73.3846C39 54.3564 54.485 39 73.5 39C92.515 39 108 54.3564 108 73.3846C108 92.4128 92.515 107.769 73.5 107.769H66.5455V89.7692H73.5C82.6509 89.7692 90 82.3948 90 73.3846C90 64.3744 82.6509 57 73.5 57C64.3491 57 57 64.3744 57 73.3846V135.473ZM66 80.7692H73.5C77.7189 80.7692 81 77.3858 81 73.3846C81 69.3834 77.7189 66 73.5 66C69.2811 66 66 69.3834 66 73.3846V80.7692Z" fill="black"/>
</svg>
