<svg width="144" height="144" viewBox="0 0 144 144" fill="none" xmlns="http://www.w3.org/2000/svg">
<path fill-rule="evenodd" clip-rule="evenodd" d="M117.869 117.048L106.537 105.646C115.002 96.9585 120.217 85.0881 120.217 71.9992C120.186 45.3832 98.6153 23.8123 71.9992 23.7817C45.3687 23.7817 23.7817 45.3687 23.7817 71.9992C23.7817 98.6298 45.3687 120.217 71.9992 120.217C80.3499 120.217 88.2046 118.094 95.0534 114.359L106.727 126.104C110.575 123.634 114.178 120.743 117.46 117.46C117.597 117.324 117.733 117.186 117.869 117.048ZM71.9992 37.9641C90.796 37.9641 106.034 53.2024 106.034 71.9992C106.034 81.1555 102.419 89.4674 96.5369 95.585L58.7188 57.5339L38.4871 77.9753C38.1434 76.0351 37.9641 74.0381 37.9641 71.9992C37.9641 53.2024 53.2025 37.9641 71.9992 37.9641ZM58.7397 77.8223L84.4461 103.686C80.5909 105.202 76.3922 106.034 71.9992 106.034C60.7409 106.034 50.7592 100.568 44.5636 92.1442L58.7397 77.8223Z" fill="black"/>
</svg>
